<?xml version="1.0" encoding="UTF-8"?>
<svg id="Capa_2" data-name="Capa 2" xmlns="http://www.w3.org/2000/svg" viewBox="0 0 180.11 183.45">
  <defs>
    <style>
      .cls-1 {
        fill: none;
        stroke: #d7d7d7;
        stroke-miterlimit: 10;
      }

      .cls-2 {
        fill: #1d1d1b;
      }

      .cls-2, .cls-3, .cls-4, .cls-5 {
        stroke-width: 0px;
      }

      .cls-3 {
        fill: #9795c9;
      }

      .cls-4 {
        fill: #fff;
      }

      .cls-5 {
        fill: #f29770;
      }
    </style>
  </defs>
  <g id="Capa_1-2" data-name="Capa 1">
    <circle class="cls-5" cx="87.82" cy="87.82" r="87.82"/>
    <path class="cls-3" d="m179.59,86.1c3.67,14.68-12.77,32.83-29.2,46.77v-.02s-18.81-2.06-17.04-22.5c5.89-4.3,10.49-7.74,10.49-7.74-3.22-11.57-.27-17.26-.02-17.71.02-.02.02-.03.02-.03h.02c4.36-2.53,7.27-.93,9.09,1.3,16.52-18.42,26.65-.08,26.65-.08Z"/>
    <path class="cls-2" d="m131.97,53.71s8.37,21.35,3.17,36.21c-1.68,8.43-5.02,15.48-9.19,21.37l-.05.05c-6.88,7.19-22.08,12.99-31.48,16.06-5.92,1.95-12.04,3.16-18.26,3.41-19.64.8-35.22-4.51-36.1-4.82-.03-.02-.05-.02-.05-.02-10.08-7.83-14.74-16.38-14.74-16.38-7.63-15.23-6.99-36.82-6.99-36.82,0,0,24.2-31.97,56.51-34.26,0,0,33.44-3.12,57.15,15.18l.02.02Z"/>
    <path class="cls-3" d="m25.28,109.59c-17.15,1.27-16.52-21.59-16.52-21.59-.63-13.97,9.53-15.23,9.53-15.23,0,0-.64,21.59,6.99,36.82Z"/>
    <path class="cls-3" d="m145.93,72.77c.91,5.73-.24,9.56-2.07,12.11h-.02s0,.02-.02.03c-3.27,4.49-8.68,5.01-8.68,5.01,5.2-14.85-3.17-36.21-3.17-36.21,15.87,0,13.96,19.06,13.96,19.06Z"/>
    <path class="cls-4" d="m120.66,154.62c5.37,10.96,6.22,23.99,6.22,23.99l-70.14,3.99-14.95.85c-1.66-1.33-4.79-3.55-8.16-4.44l4.33-.82c1.27-13.35,26.68-39.49,26.68-39.49l.27-1.26c6.3,1.29,13.39,1.68,21.32.74,0,0,12.51-3.08,25.03-12.22.02-.02.03-.02.05-.03,4.85-3.08,14.51-10.05,22.04-15.58-1.77,20.44,17.04,22.5,17.04,22.5v.02c-14.85,12.61-29.71,21.75-29.71,21.75h-.02Z"/>
    <path class="cls-4" d="m94.43,127.4c9.41-3.08,24.6-8.87,31.48-16.06-4.27,6.03-9.44,10.83-14.6,14.6-.02.02-.03.02-.05.03-12.51,9.14-25.03,12.22-25.03,12.22-7.93.94-15.03.55-21.32-.74-10.43-2.12-18.65-6.64-24.84-11.46.88.31,16.46,5.62,36.1,4.82,6.22-.25,12.34-1.46,18.26-3.41Z"/>
    <path class="cls-3" d="m76.42,33.1s32.27-2.42,49.54,12.01c3.91,4.66,5.83,8.26,6,8.59-23.71-18.31-57.15-15.18-57.15-15.18-32.31,2.29-56.51,34.26-56.51,34.26.75-4.85,1.95-9.26,3.45-13.24l.02-.02c.79-.8,25.94-26.58,54.66-26.43Z"/>
    <path class="cls-4" d="m125.96,45.11c-17.27-14.43-49.54-12.01-49.54-12.01-28.72-.16-53.87,25.62-54.66,26.43,12.59-33,47.97-37.56,47.97-37.56,29.66-2.58,47.69,12.88,56.23,23.14Z"/>
    <path class="cls-1" d="m120.68,154.62s-3.24-5.95-7.91-10.62"/>
    <path class="cls-1" d="m64.91,137.45s29.12,10.45,51.82-15.15"/>
    <path class="cls-3" d="m62.91,57.09s-30.5,5.01-29.25,25.07c0,0,1.25,12.95,4.18,16.71,0,0,.08-.98.27-2.59,1.64-13.98,8.83-26.69,19.89-35.4,1.49-1.17,3.12-2.44,4.91-3.79Z"/>
  </g>
</svg>